<svg version="1.1" xmlns="http://www.w3.org/2000/svg" viewBox="0 0 898.2187943622545 595" width="1796.437588724509" height="1190">
  <!-- svg-source:excalidraw -->
  <!-- payload-type:application/vnd.excalidraw+json --><!-- payload-version:2 --><!-- payload-start -->eyJ2ZXJzaW9uIjoiMSIsImVuY29kaW5nIjoiYnN0cmluZyIsImNvbXByZXNzZWQiOnRydWUsImVuY29kZWQiOiJ4nO2da1PiyFx1MDAxYcffz6ew3PNipmph0/furVOnXG5RwLvcvM3OsUJcdTAwMTIgXHUwMDEyXHUwMDEyTFx1MDAwMojrfPfTICMhRlx1MDAwMZdA8KhVY9KdTnc6/19fnvTT8/eXra1tf9Axtv/c2jbuNdUydVftb/8+XGbvXHUwMDE5rmc6toyCo3PP6bra6Mqm73e8P//4Q+100lxy0685TiutOe2nZIZltFxy2/fkhd/l+dbW36N/XHUwMDAzXHUwMDE5uYbmq3bDMkZcdEZRk7xAOOzEsUe5Ks9cdTAwMTGmtysz8VxyXYbWVcszJjHDoO1cIq1a+LLZRdXKjpa913hcbllwklfdtKyyP7BGZfFcdTAwMWP5yJM4z3edlnFh6n7z13NcdTAwMDfCX0vlOt1G0zY8b6r8TkfVTH8wXGZTJoV/evDg49xPnVxyps6e8s06luNcdTAwMGXz/VxyXHUwMDE4w99JzjVVazVk9rb+fI3vqrbXUV35XHUwMDBlJtf1x09cdTAwMDTI5N5Nw2w0fVx1MDAxOUjJJD9jVKuAXHUwMDAzgJlcdTAwMDJcdTAwMTXxXHUwMDFjM8yls6+PXuuPSV26atvYXHUwMDFmJrG7llx1MDAxNaxcdTAwMTBbXHUwMDFmV8hURG1cdTAwMTixXHUwMDE3VkhQJVNK8Y37yUNcdTAwMDTecMnOKKlcdTAwMTK/aJ+p1ets/+hooFls+/m6n+OjSTm7XHUwMDFkXX1cdTAwMTJcZmBcblx1MDAxN1x1MDAxNCmYKmLydJZpt8JltVx1MDAxY6010dgo9Ofv61E07/haL1ch+bPKdW+PeWd3OrjeJEVLMa1b01x1MDAxMFx0yFx1MDAwNGIkmZImvcq1s3tcXOWd6qGwbpybep3VPrCkL+7t7oHvN873j7qqyLn9w8P2abIlXHJB0ppphTNKXHUwMDAw5SCZmq6ftlx1MDAxYnfF035cdTAwMWJqeqNX7OzkVav8gTV9r5Gb/dyR2Vx1MDAxMPToiLSuXHUwMDBliplcdTAwMTLeLE0noKFGXHUwMDA0K5RBzJIp6l4jdUh0vSOo41xcd/TiSb5fyH5gUVx1MDAwZjJcdTAwMTdXe7u3JS97edAvnlxc1nKp+16yRY1cdTAwMTPXUFx1MDAxM4XIwTQgKJmatu5cbt19lebxfoFdafaNXixf5D6wplGu2W5ncsXz3YGmXHUwMDFjpvb6R7xxs1maTkBDXHJcdTAwMDGijFx1MDAwMspcdTAwMTI6SyxcdTAwMTh7duWe7FWvbrJN9+I0f1utklx1MDAwZqzqVCOT1UGJ6/dcdTAwMDclqXCNXHUwMDE5rFBJtqpp0lpqqWk5qGZcdTAwMTAkdPRxidyHXGY46V2Uj/Xqbq5YqFx1MDAxZEP/XHUwMDAza7qP2tWTXHUwMDFk10fH6tU1rMPKzZl/tFmaTkBLXHJcYlx1MDAxNpwgQlx1MDAxMjpRJKc2VVtnhaPG/uHxaapUutO93TWqWiaPS9DX9eP21fV5XHKXi/Uyrnj3lVxuab1H0GBlglx1MDAwZZjMXHUwMDA2IXmF5CyEeL+WI5SMlVxim4eAXHUwMDAyYIFjt+MtU22BXHUwMDFhU11/x7R1026Ek1x1MDAxOLb+Soylen7WabdNX1x1MDAxNuPMMW0/fMXovlx1MDAxOdd1+k1DffHQ8s6vxnWGt5tmd3K0NXkro5Pn41x1MDAxZr/Pvlq+vcn1X4J/18Ddfa+X9VNurlu8xlx1MDAxN1x1MDAxZKO6h7N77+pIVsdcdTAwMWTkyVx1MDAwMlx1MDAwZmBcdTAwMDUgXHUwMDA0Y1x1MDAxZlx1MDAxOb1ccl6w3j7Bi7w6UeB1r8qorJ9r1lx0qFx1MDAxNJm1XHUwMDBidnO4nmzwcLLAXHUwMDEzQlFcdTAwMTQo4ftcdTAwMDTvXHUwMDEzvFx1MDAwNUaaXHUwMDE5o1x1MDAwNv3z5tXx2Ym5m+2f2lx1MDAxYTpLNng0UeAhgDlcdTAwMTKCx260/eRu+LNS7tRhIWNcdTAwMDKPpVI5W1x1MDAwNWYlf3ZwTlx1MDAwNu1C5/hhP9k2XHUwMDBiRtLT5Fx1MDAwMVx1MDAwNYUyX57RXCL4zfGZv4CNZGyJk9InkIJlTPQmxohfXHUwMDAygOOQn69T+ZxmIVPGOW9WXHUwMDFmWppatbPNfK6dLZ/fevaipoxNRj6M1lKpXHUwMDBmrEhcdTAwMGJdv3bqXHUwMDFkfFjLXFyU92/6eX8vOzg/8tu9frKpl1x1MDAxM8ww9iTc2S9cdTAwMTF7ZVx1MDAxZexcdTAwMDGmXHUwMDFjXHUwMDEyRJfx+X+F2Jt6lnTAdZP19u5cbi3vZKfU7+9/Yr8k7IFILPaXXHUwMDBmNvBcdTAwMDc5MShn7+yD/N5Bq4wyS8Ved4ZvaLnzW1x1MDAxY+Y+YM1cXFx1MDAwZveUckFcdTAwMDRcdTAwMTJLXHUwMDE4bK9cdTAwMTD7nZLfXHUwMDE4nFxyLnqqXdJuLkwmXG76wlx1MDAwYic+sX9cdTAwMDX7VIK5V5qlwq3av5VcbrUyp/VyuVxincNN6+6Di+yWjT2er7tnXGYzyMEylmWvkHu8c5xv9Fx1MDAxODo48CnP3Vx1MDAxNcv5JnE/uV9cdTAwMTL3KLnYd1x1MDAxYaegdnCdU29PXHUwMDA3XHUwMDFhu9VcdTAwMDZcdTAwMDCaJ8nGnr7o7Vx1MDAxMUDp1y1r/1x1MDAxNHxcdTAwMWFpXVx1MDAwYoOPOVWwwMvwMFoh97Dp7XTPXHUwMDE0y2y5Od3tt1xmpfBQ/+R+SdxTZVwiy+FPSqTJommQMjtcclxiJoAgQc2Ld6eJfuagc4lL5dPKQ/5YM9tJn01EtC9cIpz9qodcdTAwMTVcdTAwMWNBQFx1MDAxOUab1bq0bmtq+eSUdbCduqlcdTAwMTdcdTAwMGZp49KzPluXZc0mXHUwMDEyPKzQblxuzTrNNzKXyFx1MDAxMJdX5MirQSvh3MNcdTAwMTfc42A3v5aPXHUwMDA2fDiXgFx1MDAwMG5cdTAwMTb3N7k2aORT1yfoolx1MDAwZYtqp3/naNVP7pfF/T/8aDD11sK7XCJcdTAwMDTDfmFcdTAwMGZcdTAwMDDiUEEwsGBjXHUwMDE2/9FcdTAwMGXtiZ5WXHUwMDEwkeZcdTAwMDJcdTAwMTNcdTAwMDRgyKZcdTAwMDDfmFsoivL+JkBcdTAwMGXtZCsw5cL93Fx1MDAxMsBcdTAwMTdNXHUwMDAxgoRzXHUwMDFlv1x1MDAxN+EsKvF7qKw7tl82XHUwMDFmRmqiU6E5tW1ag6m3Nlx1MDAxMqisvKpnuNtToVx1MDAxOcts2KP+RZY2XHUwMDE4KVx1MDAxNeubmmo9X9A2dT24iF+TWammbbijqpm1pYbjmlxy01atSmRJhmtcXFxuv15cdTAwMTRIXHUwMDA39FJTPWO0XHUwMDAyZvjdZ7lcdTAwMTBiXHUwMDAxXGJFJOBxN4vBaFx1MDAwZvyNZFx1MDAxMIuEQCg4UShRljFcdTAwMGX/pHDWNiBcdKRcdTAwMTBApEChYDQ/htGbXHUwMDA2JFx1MDAxYUNIQVx1MDAxYWOAXHUwMDE1urK+XHUwMDEwszRcdTAwMDBcZvD5MGSAybE5XHUwMDAwa19BujpcZstcdTAwMDPPN9oxgThj85IwiOGyrFx1MDAwN0VAXHUwMDEx5iiwwnJcdTAwMTaJ0TtcdTAwMWRsJokx9oiLocjR6Et3/J54s1AkQTluLooz9lxcSSaKXHUwMDA0cYY5n39+XHUwMDE4vUFDolHEhKQpR2RqqFx1MDAxOG+nSHiaoqFcdTAwMDFoLlx1MDAxMlx0R4DIq9fsSLhKXHUwMDEyd1VfXHUwMDFk6jomXHUwMDE2Z2xcdTAwMTVcdTAwMTNm8WVp1kOjoIRcblx1MDAwMMXEVDBcdTAwMGLH6J0lNlx1MDAxM8dcdTAwMTh7xsV4XHUwMDA0VFx1MDAxMFx1MDAwMYmgazfZfFx1MDAxOCBn7HOTUCBl70jkvDGwNGDmXCLMyF0xXHUwMDEyzSNFIK2Ex43xdo9AYWnBZGM3J4+YMkVgSP6POshj1WuZdmOrbLg9U4tcdTAwMGLLXHUwMDE5XHUwMDFi9YSxfLVQa6FcdTAwMTNCwOVrWaC3jN7dYzPpjLG3XFxcdTAwMTRPMdyfXHUwMDE5Kuv/wkGDgvxcdTAwMDB4zthzKNl4MkQoXHUwMDAwi3x7jPZYSzSeXHUwMDAwgDSAXFy8MPOI+LxcdTAwMTZcdTAwMDFiaYbhvHZcdTAwMWVcbikmgJG1f/lYXHUwMDFknSXjrmt4/pYshbrVM43+cOFAPIjOcLFcciP6dsnWM+vEXGLImdFcIvbYaFx1MDAxZrNEg4owSctnnJ5cdTAwMDOOkuL4XHUwMDFjXHKZSMv5XHUwMDAznvNcdTAwMTOlZIRcIibWbo9dXHUwMDFkpznD15qGN6IhJj5nOMOG+Ywu0Xq45ExBXHUwMDBi2WajfcBcdTAwMTKOJU6ziO5cdTAwMTPw+NxcdTAwMDC5kp6/98SKXHUwMDFj3orgJlx1MDAwNGuiklx1MDAwNdVcdTAwMThz7+l3XTtWKmf4qr7sNaNKtCZcdTAwMWIt4Vx1MDAwMiCI57dcdEW7aCVcdTAwMWFLXGZQdG9cdFF8fnpyILJId4mQwFx1MDAxY5P1j2tXR2bZsPWnoWPdcbfaT9O9mFx1MDAxMJ3hVvric+bbRVvTyjsuiILQ/Fx1MDAwNqJor6pEo0opTSOOmFwiOOaybZrk/MQrTiOAOIVcdTAwMWMj2ZHxXHUwMDE48WUgXHUwMDFk/qzzjC/gL5dcdTAwMDIpXHUwMDAwXHUwMDEzxPDae9Z3bZ/6Ln4znY412CpcdTAwMTlccuN+hMlf9lx1MDAxOJQ//11z//jPf78qj1x1MDAxY3/7XG6/Kt//slFK/HhcdTAwMDTflVx1MDAxNH3kj/JcdTAwMTDKQ/hIUn/Z8lx1MDAwNH2Hw2gsw+RcdTAwMWbyXHUwMDFkPMJH/Fx1MDAxNEVlXHUwMDE4XHUwMDFhJmDygP145PLPKELIXHUwMDAz/EhcdTAwMWaZjPw2usMomHwnj+MsZIpHOrzhU5px6DidXGb/9nV8r7/Zz2//iqnhmeHYXHUwMDFhbnjCdfpqjb5Wn6/W5it1XHUwMDE5WZNv1GN0Lb6ow/laSLb04VxmXHUwMDA2kEPB5m8jo33DXHUwMDEy3UZiwNOIXHUwMDAwXHUwMDEynmXIXHUwMDExTnzNIZJDKEHnXYylQKpcdTAwMTBFWbtcdH11jeGvQf1cdTAwMTBYQ49ztjHDl/W12UZkwdZkSlcooVx1MDAwYljSo/24XHUwMDEyzShcdTAwMDBK9JRcdTAwMDOjXHUwMDE4/9dcdTAwMDK0kIWOYVx1MDAwMDhdv1x1MDAwZsHqIN01vY6lXHUwMDBlVkHpXGbP01x1MDAxN0tE3izZQph+XHUwMDE5e+xtq51O2Zf1vf3L6VK+YFNcdTAwMWZX2qSOt4eG+523pfZljP+QNWPkxfnzy8//XHUwMDAxXHUwMDEzOj7NIn0=<!-- payload-end -->
  <defs>
    <style class="style-fonts">
      @font-face {
        font-family: "Virgil";
        src: url("https://unpkg.com/@excalidraw/excalidraw@undefined/dist/excalidraw-assets/Virgil.woff2");
      }
      @font-face {
        font-family: "Cascadia";
        src: url("https://unpkg.com/@excalidraw/excalidraw@undefined/dist/excalidraw-assets/Cascadia.woff2");
      }
      @font-face {
        font-family: "Assistant";
        src: url("https://unpkg.com/@excalidraw/excalidraw@undefined/dist/excalidraw-assets/Assistant-Regular.woff2");
      }
    </style>
    
  </defs>
  <rect x="0" y="0" width="898.2187943622545" height="595" fill="transparent"/><g stroke-linecap="round" transform="translate(30 30) rotate(0 75 32.5)"><path d="M0 0 C34.15 2.99, 68.65 1.89, 150 0 M0 0 C44.56 -0.37, 90.9 -1.66, 150 0 M150 0 C149.27 21.8, 149.76 47.32, 150 65 M150 0 C149.56 15.08, 149.33 31.09, 150 65 M150 65 C95.31 67.09, 41.03 64.72, 0 65 M150 65 C109.1 64.67, 68.76 66.32, 0 65 M0 65 C1.96 45.89, -1.52 29.96, 0 0 M0 65 C0.88 38.81, -0.43 13.27, 0 0" stroke="#1e1e1e" stroke-width="2" fill="none"/></g><g stroke-linecap="round" transform="translate(30 500) rotate(0 75 32.5)"><path d="M0 0 C47.17 1.37, 91.28 -0.57, 150 0 M0 0 C45.07 1.43, 87.95 1.71, 150 0 M150 0 C147.91 16.06, 149.69 30.8, 150 65 M150 0 C149.2 16.89, 149.24 35.27, 150 65 M150 65 C94.08 62.67, 34.25 63.62, 0 65 M150 65 C118.53 63.38, 89.53 63.71, 0 65 M0 65 C-1.7 47.12, -0.38 34.82, 0 0 M0 65 C-0.99 45.05, -0.99 26.01, 0 0" stroke="#1e1e1e" stroke-width="2" fill="none"/></g><g stroke-linecap="round" transform="translate(240 30) rotate(0 75 32.5)"><path d="M0 0 C36.92 -0.6, 69.93 -1.6, 150 0 M0 0 C58.17 -1.74, 116.25 -1.91, 150 0 M150 0 C150 17.87, 148.79 35.41, 150 65 M150 0 C149.4 19.59, 150.44 41.73, 150 65 M150 65 C97.92 65.32, 48.38 64.24, 0 65 M150 65 C99.31 64.59, 49.65 63.23, 0 65 M0 65 C-2.39 46.6, 1.33 29.29, 0 0 M0 65 C-1 41.51, -0.5 20.09, 0 0" stroke="#1e1e1e" stroke-width="2" fill="none"/></g><g stroke-linecap="round" transform="translate(240 500) rotate(0 75 32.5)"><path d="M0 0 C51.91 -1.44, 101.94 0.23, 150 0 M0 0 C34.02 0.1, 68.25 -0.78, 150 0 M150 0 C149.2 17.2, 148.71 36.86, 150 65 M150 0 C148.56 18.64, 150.25 36.5, 150 65 M150 65 C111.64 63.18, 73.04 64.48, 0 65 M150 65 C115.21 63.63, 78.24 63.72, 0 65 M0 65 C0.06 42.11, 0.61 16.52, 0 0 M0 65 C-0.24 39.84, 1.16 15.17, 0 0" stroke="#1e1e1e" stroke-width="2" fill="none"/></g><g stroke-linecap="round" transform="translate(440 30) rotate(0 75 32.5)"><path d="M0 0 C59.89 -0.78, 121.41 -2.08, 150 0 M0 0 C59.24 0.02, 116.95 0.38, 150 0 M150 0 C148.95 12.53, 150.33 25.95, 150 65 M150 0 C150.28 14.54, 150.07 26.91, 150 65 M150 65 C92.8 62.46, 37.52 63.12, 0 65 M150 65 C117.04 65.7, 84.52 67.04, 0 65 M0 65 C2.46 51.56, 1.63 39.87, 0 0 M0 65 C0.35 50.49, 0.91 33.61, 0 0" stroke="#1e1e1e" stroke-width="2" fill="none"/></g><g stroke-linecap="round" transform="translate(440 500) rotate(0 75 32.5)"><path d="M0 0 C59.66 1.68, 118.12 1.79, 150 0 M0 0 C49.96 -1.2, 100.84 -1.95, 150 0 M150 0 C149.28 20.18, 149.5 38, 150 65 M150 0 C150.27 16.9, 148.94 33.83, 150 65 M150 65 C114.99 65.19, 82.55 62.88, 0 65 M150 65 C114.72 64.23, 81.32 63.55, 0 65 M0 65 C0.19 52.58, 1.94 36.81, 0 0 M0 65 C1.17 48.89, -0.46 31.88, 0 0" stroke="#1e1e1e" stroke-width="2" fill="none"/></g><g stroke-linecap="round" transform="translate(640 30) rotate(0 75 32.5)"><path d="M0 0 C53.36 -1.33, 105.11 0.82, 150 0 M0 0 C39.12 0.63, 77.72 0.88, 150 0 M150 0 C149.94 18.52, 147.86 37.01, 150 65 M150 0 C150.74 13.43, 151.15 27.07, 150 65 M150 65 C111.92 62.31, 70.85 62.2, 0 65 M150 65 C92.38 65, 34.34 63.27, 0 65 M0 65 C0.42 49.03, -1.91 28.69, 0 0 M0 65 C0.59 48.91, 0.34 33.9, 0 0" stroke="#1e1e1e" stroke-width="2" fill="none"/></g><g stroke-linecap="round" transform="translate(640 500) rotate(0 75 32.5)"><path d="M0 0 C43.85 0.53, 91.27 -2.03, 150 0 M0 0 C54.61 -0.63, 109.65 0.25, 150 0 M150 0 C149.34 14.19, 148.87 30.24, 150 65 M150 0 C150.04 24.04, 149.75 46.12, 150 65 M150 65 C108.47 63.85, 68.08 67.15, 0 65 M150 65 C111.01 63.69, 69.47 64.35, 0 65 M0 65 C1.76 38.16, -0.85 12.6, 0 0 M0 65 C-1.37 45.43, -1.19 25.86, 0 0" stroke="#1e1e1e" stroke-width="2" fill="none"/></g><g stroke-linecap="round"><g transform="translate(105 95) rotate(0 0 202.5)"><path d="M0 0 C2.94 119.66, 1.51 239.22, 0 405 M0 0 C-1.05 99.37, -0.55 198.36, 0 405" stroke="#999" stroke-width="1" fill="none"/></g></g><mask/><g stroke-linecap="round"><g transform="translate(315 95) rotate(0 0 202.5)"><path d="M0 0 C-1.19 155.64, -0.87 311.51, 0 405 M0 0 C-0.39 112.34, -0.73 224.59, 0 405" stroke="#999" stroke-width="1" fill="none"/></g></g><mask/><g stroke-linecap="round"><g transform="translate(515 95) rotate(0 0 202.5)"><path d="M0 0 C1.63 93.6, 1.44 185.5, 0 405 M0 0 C-2.24 113.62, -2.38 227.92, 0 405" stroke="#999" stroke-width="1" fill="none"/></g></g><mask/><g stroke-linecap="round"><g transform="translate(715 95) rotate(0 0 202.5)"><path d="M0 0 C1.56 157.58, 0.58 316.18, 0 405 M0 0 C-0.17 82.04, 0.22 164.34, 0 405" stroke="#999" stroke-width="1" fill="none"/></g></g><mask/><g mask="url(#mask-7--Fna1iTGPJV5ymHpMzI)" stroke-linecap="round"><g transform="translate(105.5 133) rotate(0 104.5 0)"><path d="M0.78 -0.66 C35.5 -0.62, 174.22 -0.35, 208.73 -0.22 M-0.26 1.61 C34.23 1.88, 172.58 1.23, 207.64 1.19" stroke="#1e1e1e" stroke-width="2" fill="none"/></g><g transform="translate(105.5 133) rotate(0 104.5 0)"><path d="M179.48 11.54 C187.91 7.42, 198.11 2.45, 207.64 1.19 M179.48 11.54 C187.77 8.67, 196.5 4.47, 207.64 1.19" stroke="#1e1e1e" stroke-width="2" fill="none"/></g><g transform="translate(105.5 133) rotate(0 104.5 0)"><path d="M179.42 -8.99 C187.79 -6.19, 198.01 -4.25, 207.64 1.19 M179.42 -8.99 C187.72 -5.57, 196.46 -3.49, 207.64 1.19" stroke="#1e1e1e" stroke-width="2" fill="none"/></g></g><mask id="mask-7--Fna1iTGPJV5ymHpMzI"><rect x="0" y="0" fill="#fff" width="415.5" height="233"/><rect x="141.12890625" y="123" fill="#000" width="137.7421875" height="20" opacity="1"/></mask><g mask="url(#mask-o4KbAWSI_wGtECyVLtmvw)" stroke-linecap="round"><g transform="translate(315.5 181) rotate(0 99.5 0)"><path d="M-0.66 -0.27 C32.55 -0.59, 165.49 -1.19, 198.78 -1.16 M1.2 -1.46 C34.27 -1.75, 164.85 -0.67, 197.71 -0.24" stroke="#1e1e1e" stroke-width="2" fill="none"/></g><g transform="translate(315.5 181) rotate(0 99.5 0)"><path d="M169.42 9.74 C176.32 6.9, 182.25 4.78, 197.71 -0.24 M169.42 9.74 C177.87 6.7, 185.09 3.56, 197.71 -0.24" stroke="#1e1e1e" stroke-width="2" fill="none"/></g><g transform="translate(315.5 181) rotate(0 99.5 0)"><path d="M169.62 -10.78 C176.61 -8.24, 182.49 -4.98, 197.71 -0.24 M169.62 -10.78 C177.91 -7.83, 185.06 -4.99, 197.71 -0.24" stroke="#1e1e1e" stroke-width="2" fill="none"/></g></g><mask id="mask-o4KbAWSI_wGtECyVLtmvw"><rect x="0" y="0" fill="#fff" width="615.5" height="281"/><rect x="375.23828125" y="171" fill="#000" width="79.5234375" height="20" opacity="1"/></mask><g mask="url(#mask-Xzn1tyF9ySCqnJGEJkS3A)" stroke-linecap="round"><g transform="translate(514.5 229) rotate(0 -99.5 0)"><path d="M-0.27 -0.22 C-33.76 -0.1, -167.03 0.14, -200.16 0.07" stroke="#1e1e1e" stroke-width="2.5" fill="none" stroke-dasharray="1.5 8"/></g><g transform="translate(514.5 229) rotate(0 -99.5 0)"><path d="M-171.97 -10.19 C-182.7 -8.45, -192.5 -2.92, -200.16 0.07" stroke="#1e1e1e" stroke-width="2.5" fill="none" stroke-dasharray="1.5 6"/></g><g transform="translate(514.5 229) rotate(0 -99.5 0)"><path d="M-171.97 10.33 C-182.59 4.58, -192.39 2.61, -200.16 0.07" stroke="#1e1e1e" stroke-width="2.5" fill="none" stroke-dasharray="1.5 6"/></g></g><mask id="mask-Xzn1tyF9ySCqnJGEJkS3A"><rect x="0" y="0" fill="#fff" width="814.5" height="329"/><rect x="374.7890625" y="219" fill="#000" width="80.421875" height="20" opacity="1"/></mask><g mask="url(#mask-0hRHjawjpIdlAOfSSQ2oK)" stroke-linecap="round"><g transform="translate(315.5 277) rotate(0 199.5 0)"><path d="M-0.22 -1.16 C66.4 -1.14, 332.64 -0.23, 399.07 -0.1 M-1.8 0.84 C64.73 1.09, 331.65 1.41, 398.16 1.39" stroke="#1e1e1e" stroke-width="2" fill="none"/></g><g transform="translate(315.5 277) rotate(0 199.5 0)"><path d="M369.96 11.63 C374.96 9.29, 383.65 5.57, 398.16 1.39 M369.96 11.63 C376.58 8.5, 384.14 6.81, 398.16 1.39" stroke="#1e1e1e" stroke-width="2" fill="none"/></g><g transform="translate(315.5 277) rotate(0 199.5 0)"><path d="M369.98 -8.89 C374.93 -6.2, 383.61 -4.88, 398.16 1.39 M369.98 -8.89 C376.62 -6.54, 384.18 -2.77, 398.16 1.39" stroke="#1e1e1e" stroke-width="2" fill="none"/></g></g><mask id="mask-0hRHjawjpIdlAOfSSQ2oK"><rect x="0" y="0" fill="#fff" width="815.5" height="377"/><rect x="443.23828125" y="267" fill="#000" width="143.5234375" height="20" opacity="1"/></mask><g mask="url(#mask-pgO1bJZFajOyc7jcy12iN)" stroke-linecap="round"><g transform="translate(714.5 343.5) rotate(0 33.324723396954425 10.904181190712961)"><path d="M-1.16 0.07 C8.95 -1.58, 50.19 -15.25, 60.4 -10.15 C70.61 -5.05, 70.05 25.66, 60.1 30.67 C50.16 35.69, 10.68 21.71, 0.74 19.93 M0.43 -0.94 C10.4 -2.42, 49.62 -14.46, 59.4 -8.95 C69.18 -3.45, 68.89 27.18, 59.13 32.08 C49.37 36.99, 10.31 22.52, 0.84 20.47" stroke="#1e1e1e" stroke-width="2" fill="none"/></g><g transform="translate(714.5 343.5) rotate(0 33.324723396954425 10.904181190712961)"><path d="M30.78 18.49 C22.59 18.58, 13.08 18.64, 0.84 20.47 M30.78 18.49 C20.9 17.99, 12.52 20.3, 0.84 20.47" stroke="#1e1e1e" stroke-width="2" fill="none"/></g><g transform="translate(714.5 343.5) rotate(0 33.324723396954425 10.904181190712961)"><path d="M25.05 38.19 C18.49 32.88, 10.56 27.46, 0.84 20.47 M25.05 38.19 C17.02 31.55, 10.44 27.66, 0.84 20.47" stroke="#1e1e1e" stroke-width="2" fill="none"/></g></g><mask id="mask-pgO1bJZFajOyc7jcy12iN"><rect x="0" y="0" fill="#fff" width="874.5" height="483.5"/><rect x="696.3828568622544" y="264.2971688030932" fill="#000" width="171.8359375" height="180" opacity="1"/></mask><g mask="url(#mask-sqc9wAJpX4RSOTzGMcimA)" stroke-linecap="round"><g transform="translate(714.5 422) rotate(0 -199.5 0)"><path d="M0.07 -0.1 C-66.5 0.03, -333.17 -0.37, -399.65 -0.4" stroke="#1e1e1e" stroke-width="2.5" fill="none" stroke-dasharray="1.5 8"/></g><g transform="translate(714.5 422) rotate(0 -199.5 0)"><path d="M-371.45 -10.63 C-379.65 -8.82, -388.08 -4.57, -399.65 -0.4" stroke="#1e1e1e" stroke-width="2.5" fill="none" stroke-dasharray="1.5 6"/></g><g transform="translate(714.5 422) rotate(0 -199.5 0)"><path d="M-371.47 9.89 C-379.46 5.93, -387.89 4.41, -399.65 -0.4" stroke="#1e1e1e" stroke-width="2.5" fill="none" stroke-dasharray="1.5 6"/></g></g><mask id="mask-sqc9wAJpX4RSOTzGMcimA"><rect x="0" y="0" fill="#fff" width="1214.5" height="522"/><rect x="448.3515625" y="412" fill="#000" width="133.296875" height="20" opacity="1"/></mask><g mask="url(#mask-c_Hhf6GgAX3e9XY5Lsb2l)" stroke-linecap="round"><g transform="translate(314.5 470) rotate(0 -104.5 0)"><path d="M-0.1 -0.65 C-34.8 -0.63, -174.54 0.24, -209.4 0.17" stroke="#1e1e1e" stroke-width="2.5" fill="none" stroke-dasharray="1.5 8"/></g><g transform="translate(314.5 470) rotate(0 -104.5 0)"><path d="M-181.23 -10.16 C-188.03 -8.75, -192.37 -6.43, -209.4 0.17" stroke="#1e1e1e" stroke-width="2.5" fill="none" stroke-dasharray="1.5 6"/></g><g transform="translate(314.5 470) rotate(0 -104.5 0)"><path d="M-181.18 10.36 C-188 7.61, -192.35 5.76, -209.4 0.17" stroke="#1e1e1e" stroke-width="2.5" fill="none" stroke-dasharray="1.5 6"/></g></g><mask id="mask-c_Hhf6GgAX3e9XY5Lsb2l"><rect x="0" y="0" fill="#fff" width="624.5" height="570"/><rect x="140.23828125" y="460" fill="#000" width="139.5234375" height="20" opacity="1"/></mask><g transform="translate(89.89453125 52.5) rotate(0 15.10546875 10)"><text x="15.10546875" y="0" font-family="Virgil, Segoe UI Emoji" font-size="16px" fill="#000" text-anchor="middle" style="white-space: pre;" direction="ltr" dominant-baseline="text-before-edge">User</text></g><g transform="translate(89.89453125 522.5) rotate(0 15.10546875 10)"><text x="15.10546875" y="0" font-family="Virgil, Segoe UI Emoji" font-size="16px" fill="#000" text-anchor="middle" style="white-space: pre;" direction="ltr" dominant-baseline="text-before-edge">User</text></g><g transform="translate(291.44140625 52.5) rotate(0 23.55859375 10)"><text x="23.55859375" y="0" font-family="Virgil, Segoe UI Emoji" font-size="16px" fill="#000" text-anchor="middle" style="white-space: pre;" direction="ltr" dominant-baseline="text-before-edge">System</text></g><g transform="translate(291.44140625 522.5) rotate(0 23.55859375 10)"><text x="23.55859375" y="0" font-family="Virgil, Segoe UI Emoji" font-size="16px" fill="#000" text-anchor="middle" style="white-space: pre;" direction="ltr" dominant-baseline="text-before-edge">System</text></g><g transform="translate(485.68359375 52.5) rotate(0 29.31640625 10)"><text x="29.31640625" y="0" font-family="Virgil, Segoe UI Emoji" font-size="16px" fill="#000" text-anchor="middle" style="white-space: pre;" direction="ltr" dominant-baseline="text-before-edge">Database</text></g><g transform="translate(485.68359375 522.5) rotate(0 29.31640625 10)"><text x="29.31640625" y="0" font-family="Virgil, Segoe UI Emoji" font-size="16px" fill="#000" text-anchor="middle" style="white-space: pre;" direction="ltr" dominant-baseline="text-before-edge">Database</text></g><g transform="translate(661.01171875 52.5) rotate(0 53.98828125 10)"><text x="53.98828125" y="0" font-family="Virgil, Segoe UI Emoji" font-size="16px" fill="#000" text-anchor="middle" style="white-space: pre;" direction="ltr" dominant-baseline="text-before-edge">Masking Service</text></g><g transform="translate(661.01171875 522.5) rotate(0 53.98828125 10)"><text x="53.98828125" y="0" font-family="Virgil, Segoe UI Emoji" font-size="16px" fill="#000" text-anchor="middle" style="white-space: pre;" direction="ltr" dominant-baseline="text-before-edge">Masking Service</text></g><g transform="translate(141.12890625 123) rotate(0 68.60388681647368 10.509124126783313)"><text x="68.87109375" y="0" font-family="Virgil, Segoe UI Emoji" font-size="16px" fill="#1e1e1e" text-anchor="middle" style="white-space: pre;" direction="ltr" dominant-baseline="text-before-edge">Request data viewing</text></g><g transform="translate(375.23828125 171) rotate(0 39.321041805669665 9.128245298496793)"><text x="39.76171875" y="0" font-family="Virgil, Segoe UI Emoji" font-size="16px" fill="#1e1e1e" text-anchor="middle" style="white-space: pre;" direction="ltr" dominant-baseline="text-before-edge">Fetches data</text></g><g transform="translate(374.7890625 219) rotate(0 39.49415773041545 9.930058266483002)"><text x="40.2109375" y="0" font-family="Virgil, Segoe UI Emoji" font-size="16px" fill="#1e1e1e" text-anchor="middle" style="white-space: pre;" direction="ltr" dominant-baseline="text-before-edge">Returns data</text></g><g transform="translate(443.23828125 267) rotate(0 70.89694570649417 10.111875695448859)"><text x="71.76171875" y="0" font-family="Virgil, Segoe UI Emoji" font-size="16px" fill="#1e1e1e" text-anchor="middle" style="white-space: pre;" direction="ltr" dominant-baseline="text-before-edge">Send data for masking</text></g><g transform="translate(696.3828568622544 264.29716880309314) rotate(0 51.441866534699955 90.10701238761982)"><text x="85.91796875" y="0" font-family="Virgil, Segoe UI Emoji" font-size="16px" fill="#1e1e1e" text-anchor="middle" style="white-space: pre;" direction="ltr" dominant-baseline="text-before-edge">Apply Regex for </text><text x="85.91796875" y="20" font-family="Virgil, Segoe UI Emoji" font-size="16px" fill="#1e1e1e" text-anchor="middle" style="white-space: pre;" direction="ltr" dominant-baseline="text-before-edge">masking:&lt;br/&gt;^(0|84)(2(0[</text><text x="85.91796875" y="40" font-family="Virgil, Segoe UI Emoji" font-size="16px" fill="#1e1e1e" text-anchor="middle" style="white-space: pre;" direction="ltr" dominant-baseline="text-before-edge">3-9]|1[0-6|8|9]|2[0-2|5-</text><text x="85.91796875" y="60" font-family="Virgil, Segoe UI Emoji" font-size="16px" fill="#1e1e1e" text-anchor="middle" style="white-space: pre;" direction="ltr" dominant-baseline="text-before-edge">9]|3[2-9]|4[0-9]|5[1|2|4-</text><text x="85.91796875" y="80" font-family="Virgil, Segoe UI Emoji" font-size="16px" fill="#1e1e1e" text-anchor="middle" style="white-space: pre;" direction="ltr" dominant-baseline="text-before-edge">9]|6[0-3|9]|7[0-7]|8[0-</text><text x="85.91796875" y="100" font-family="Virgil, Segoe UI Emoji" font-size="16px" fill="#1e1e1e" text-anchor="middle" style="white-space: pre;" direction="ltr" dominant-baseline="text-before-edge">9]|9[0-4|6|7|9])|3[2-</text><text x="85.91796875" y="120" font-family="Virgil, Segoe UI Emoji" font-size="16px" fill="#1e1e1e" text-anchor="middle" style="white-space: pre;" direction="ltr" dominant-baseline="text-before-edge">9]|5[5|6|8|9]|7[0|6-9]|8[0-</text><text x="85.91796875" y="140" font-family="Virgil, Segoe UI Emoji" font-size="16px" fill="#1e1e1e" text-anchor="middle" style="white-space: pre;" direction="ltr" dominant-baseline="text-before-edge">6|8|9]|9[0-4|6-9])([0-</text><text x="85.91796875" y="160" font-family="Virgil, Segoe UI Emoji" font-size="16px" fill="#1e1e1e" text-anchor="middle" style="white-space: pre;" direction="ltr" dominant-baseline="text-before-edge">9]{7})$</text></g><g transform="translate(448.3515625 412) rotate(0 66.3591406416148 9.763892512793461)"><text x="66.6484375" y="0" font-family="Virgil, Segoe UI Emoji" font-size="16px" fill="#1e1e1e" text-anchor="middle" style="white-space: pre;" direction="ltr" dominant-baseline="text-before-edge">Returns masked data</text></g><g transform="translate(140.23828125 460) rotate(0 69.51306763775646 9.764140465733277)"><text x="69.76171875" y="0" font-family="Virgil, Segoe UI Emoji" font-size="16px" fill="#1e1e1e" text-anchor="middle" style="white-space: pre;" direction="ltr" dominant-baseline="text-before-edge">Displays masked data</text></g></svg>